<svg xmlns:dc="http://purl.org/dc/elements/1.1/" xmlns:cc="http://creativecommons.org/ns#" xmlns:rdf="http://www.w3.org/1999/02/22-rdf-syntax-ns#" xmlns:svg="http://www.w3.org/2000/svg" xmlns="http://www.w3.org/2000/svg" height="491" width="537" xml:space="preserve" version="1.1" style=""><rect id="backgroundrect" width="100%" height="100%" x="0" y="0" fill="none" stroke="none" class="" style=""/><metadata id="metadata8"><rdf:RDF><cc:Work rdf:about=""><dc:format>image/svg+xml</dc:format><dc:type rdf:resource="http://purl.org/dc/dcmitype/StillImage"/></cc:Work></rdf:RDF></metadata><defs id="defs6"/><g class="currentLayer" style=""><title>Layer 1</title><g id="g10" class=""><g id="g12" stroke-width="0"><path id="path14" style="fill:#4dbd41;fill-opacity:1;fill-rule:nonzero;stroke:none" d="M266.6958932877739,470.0571454478177 C266.6958932877739,470.0571454478177 72.72727960604925,412.79938432177846 72.72727960604925,130.2186029121553 V22.07538797096587 H460.6678120395755 V130.2186029121553 C460.6678120395755,402.6905630862549 266.6958932877739,470.0571454478177 266.6958932877739,470.0571454478177 " stroke-width="0"/><path id="path16" style="fill:#231f20;fill-opacity:1;fill-rule:nonzero;stroke:none" d="m568.4282998658705,239.04795040128982 v-152.89782986526214 h93.66238090666262 v11.268305919869283 c0,11.495033727138313 -9.3156705184911,20.814009315706222 -20.814009315706222,20.814009315706222 h-35.423741083228414 v32.07438306739116 h46.619996475423285 v10.865748384514063 c0,11.715151394253725 -9.494805316654094,21.21193975295391 -21.21193975295391,21.21193975295391 H605.8529303735986 V239.04795040128982 H568.4282998658705 " stroke-width="0"/><path id="path18" style="fill:#231f20;fill-opacity:1;fill-rule:nonzero;stroke:none" d="m683.2589936004731,239.04795040128982 v-152.89782986526214 h53.245339951392644 c13.544177174759291,0 23.452777265029745,1.2136217322039082 29.725800270811384,3.6408651966117267 c8.837757385384661,3.402900151081547 15.751963986067048,8.933604417612093 20.749229942200785,16.56104514086965 c4.984045675826508,7.6353728914419 7.4760685137397545,16.931212989472154 7.4760685137397545,27.91528288273594 c0,8.548894260671638 -1.9962623263920483,16.711095322356737 -5.982176839022527,24.4780100028556 c-3.9925246527840943,7.777490904744645 -9.630974203818585,13.51443154406802 -16.90212837279624,17.225364226308066 v0.42569302589287494 c1.4277902731810672,1.8488562009664098 3.3513410578833454,4.916622246259617 5.7838726344140445,9.192060897618482 l29.71919013065776,53.45950849236981 h-41.70337422916367 l-27.154455751054734,-51.54587291789797 h-17.53537979951266 v51.54587291789797 zm37.42198645166655,-83.61827294324303 h16.253012609711146 c6.12759992240208,0 10.900121113312867,-1.6313825899124441 14.324173712885985,-4.915961232244254 c3.424052599573118,-3.2687143059631394 5.129468759206055,-7.903744581678711 5.129468759206055,-13.89187054683949 c0,-8.422640583737575 -2.9877833494344572,-13.84229449568737 -8.969960188456978,-16.2589617358494 c-3.2852396563471817,-1.4205191190120903 -7.991659445721805,-2.130448171510452 -14.117937340093162,-2.130448171510452 h-12.618757553253042 v37.197241686443604 " stroke-width="0"/><path id="path20" style="fill:#231f20;fill-opacity:1;fill-rule:nonzero;stroke:none" d="m823.9697080645134,239.04795040128982 v-152.89782986526214 h95.81398152666466 V118.23243577160332 h-58.38736797689059 v27.788368191786518 h46.61470836330039 v32.0770271234526 h-46.61470836330039 v28.87309219099491 h61.37515132632502 V239.04795040128982 H823.9697080645134 " stroke-width="0"/><path id="path22" style="fill:#231f20;fill-opacity:1;fill-rule:nonzero;stroke:none" d="m946.7200107171639,239.04795040128982 v-152.89782986526214 h95.80076124635742 V118.23243577160332 h-58.38075783673695 v27.788368191786518 h46.621318503454006 v32.0770271234526 h-46.621318503454006 v28.87309219099491 h61.37515132632502 V239.04795040128982 H946.7200107171639 " stroke-width="0"/><path id="path24" style="fill:#231f20;fill-opacity:1;fill-rule:nonzero;stroke:none" d="m1069.46370322966,239.04795040128982 v-152.89782986526214 h54.31552164226309 c24.226163663002822,0 43.43523094941107,6.72912267638114 57.627201859224726,20.201910337481376 c14.185360769660045,13.481380843299933 21.284651294643684,32.12395911854328 21.284651294643684,55.933683951868296 c0,23.940605608366617 -7.099290524983639,42.72265784085126 -21.284651294643684,56.340868585331044 c-14.191970909813659,13.61556668841834 -33.40103819622191,20.421366990581426 -57.627201859224726,20.421366990581426 zm37.42000340962046,-32.0770271234526 h15.395016417771789 c13.114518064774245,0 23.35362516272551,-3.8418134572816465 30.684270593085714,-11.541965722228987 c7.350475850821052,-7.6968471948705295 11.01249349592434,-18.75098457376265 11.01249349592434,-33.14324273023088 c0,-14.26402143748808 -3.7082886261786063,-25.16546457883167 -11.11164559822858,-32.72019376039945 c-7.423187392510826,-7.568610475890377 -17.616023509386775,-11.333085293374719 -30.585118490781465,-11.333085293374719 H1106.8837066392807 V206.97092327783722 " stroke-width="0"/><path id="path26" style="fill:#231f20;fill-opacity:1;fill-rule:nonzero;stroke:none" d="m1218.7140577581567,161.63990413236914 c0,-22.24973175707163 7.495898934200602,-40.802412126225796 22.45464610183372,-55.71885439687578 c14.971967447940354,-14.890662724050877 34.1413738934269,-22.342934733237616 57.534659897074114,-22.342934733237616 c23.373455583186352,0 42.5428620286729,7.452272009186738 57.52143961676686,22.342934733237616 c14.971967447940354,14.91644227064998 22.441425821526494,33.46912263980415 22.441425821526494,55.71885439687578 c0,22.79969541785248 -7.469458373586137,41.83491601822063 -22.441425821526494,57.09772963292009 c-14.978577588093971,15.252237390453676 -34.14798403358052,22.871745945526897 -57.52143961676686,22.871745945526897 c-23.39328600364721,0 -42.56269244913375,-7.619508555073221 -57.534659897074114,-22.871745945526897 c-14.958747167633122,-15.262813614699462 -22.45464610183372,-34.2980342150676 -22.45464610183372,-57.09772963292009 m38.70237059942197,0 c0,13.11716212083569 3.886762410326241,24.013317150056388 11.647066950671482,32.722837816460896 c7.773524820652476,8.68109706374396 17.662294490462084,13.039162467023022 29.639868448814372,13.039162467023022 c11.964353678045054,0 21.833292927393813,-4.358065403279065 29.60681774804629,-13.039162467023022 c7.76691468049886,-8.709520666404512 11.653677090825099,-19.605675695625205 11.653677090825099,-32.722837816460896 c0,-12.541418913455727 -3.886762410326241,-23.001304692537772 -11.653677090825099,-31.343962580416587 c-7.773524820652476,-8.33208166363304 -17.642464070001235,-12.491842862303614 -29.60681774804629,-12.491842862303614 c-11.977573958352284,0 -21.866343628161896,4.159761198670582 -29.639868448814372,12.491842862303614 c-7.760304540345244,8.342657887878826 -11.647066950671482,18.802543666960855 -11.647066950671482,31.343962580416587 " stroke-width="0"/><path id="path28" style="fill:#231f20;fill-opacity:1;fill-rule:nonzero;stroke:none" d="m1396.4210656479706,239.04795040128982 l12.612147413099425,-152.89782986526214 h40.63914166443147 l22.236511476764395,64.57512017469055 l7.694203138809084,25.245447274690424 h0.42965910998504486 c2.855580546362137,-10.26686968659645 5.4203149259651635,-18.692154326395464 7.700813278962699,-25.245447274690424 l22.236511476764395,-64.57512017469055 h40.63914166443147 l12.400622928183713,152.89782986526214 h-37.42000340962046 l-4.706419789374626,-68.86113505029519 c-0.2974563069127235,-3.4187644874502245 -0.4230489698314285,-7.266527070870124 -0.4230489698314285,-11.541965722228987 c0,-4.286675889620012 0.05288112122892862,-7.6975082088858935 0.19830420460848214,-10.274140840765428 l0.22474476522294648,-3.837186359174123 h-0.4230489698314285 c-3.430662739726735,10.689918656427878 -6.286243286088865,19.23947393111488 -8.55352135877917,25.65329292216853 l-16.042810152826153,44.26943063679741 h-32.079010165498694 l-16.036200012672538,-44.26943063679741 l-8.560131498932787,-25.65329292216853 h-0.42965910998504486 c0.5684720532109826,9.406890452611002 0.5684720532109826,17.95578471328264 0,25.65329292216853 l-4.699809649221014,68.86113505029519 h-37.638138034689796 " stroke-width="0"/><path id="path30" style="fill:#1c5030;fill-opacity:1;fill-rule:nonzero;stroke:none" d="M378.6762945881376,131.07593809007915 H222.45224219757563 V220.87006497884585 h156.24718788109942 v26.86691465437244 c0,45.45991687846366 -12.827637982107305,82.14619473103272 -81.95053458248572,82.3140922909346 H222.45224219757563 V448.60776946054574 C248.10487410572887,464.5650510099243 266.69391024572803,470.0571454478177 266.69391024572803,470.0571454478177 c0,0 193.96861368172475,-67.35865019337828 193.96861368172475,-339.84118659172367 v-81.49046882779405 c0,45.477764256878416 -20.10143620714641,81.51624837439313 -81.98622933931522,82.35044806177947 " stroke-width="0"/><path id="path32" style="fill:#090a0b;fill-opacity:1;fill-rule:nonzero;stroke:none" d="m565.2679918584267,392.9511825839171 l8.848994623645808,-107.25481210454333 h28.500941300346327 l15.60059177654924,45.302595542807595 l5.401806533535036,17.699972289337705 h0.2994393489588083 c2.0015504385149403,-7.195798571226432 3.8008305883292306,-13.096009672344122 5.401806533535036,-17.699972289337705 l15.595964678441712,-45.302595542807595 h28.49829724428488 l8.704232554281614,107.25481210454333 h-26.249527564024696 l-3.305070076808028,-48.30095511648785 c-0.19830420460848214,-2.3988198617472682 -0.29679529289736134,-5.104350226622317 -0.29679529289736134,-8.10006574424111 c0,-3.0003426157263298 0.05155909319820547,-5.401806533535036 0.15005018148708468,-7.203730739410773 l0.14674511141027677,-2.6982592107060692 h-0.29679529289736134 c-2.4014639178087127,7.501187046323494 -4.3997092862468445,13.4992282217147 -6.00068523145265,18.002055694357956 l-11.245170429331628,31.05245539964212 h-22.50290012495512 l-11.252441583500604,-31.05245539964212 l-5.995397119329758,-18.002055694357956 h-0.304727461081701 c0.3999134792937718,6.596919873308819 0.3999134792937718,12.600249160822916 0,18.002055694357956 l-3.297798922639051,48.30095511648785 h-26.40156078755787 " stroke-width="0"/><path id="path34" style="fill:#090a0b;fill-opacity:1;fill-rule:nonzero;stroke:none" d="m721.871466293806,338.6468981799151 c0,9.205281177925718 2.7161065891208347,16.855857391720928 8.172116271915527,22.949745599339572 c5.449399542641072,6.1011593617876185 12.376826423630694,9.153722084727507 20.771704418723075,9.153722084727507 c8.408098275399619,0 15.322304876082,-3.0525627229398946 20.782280642968864,-9.153722084727507 c5.446755486579626,-6.093888207618639 8.170133229869439,-13.744464421413854 8.170133229869439,-22.949745599339572 c0,-8.79677451643224 -2.7233777432898107,-16.122131834669553 -8.170133229869439,-21.973427898650474 c-5.459975766886857,-5.8532791060270135 -12.374182367569249,-8.77628308195603 -20.782280642968864,-8.77628308195603 c-8.394877995092383,0 -15.322304876082,2.9230039759290194 -20.771704418723075,8.77628308195603 c-5.4560096827946865,5.851296063980926 -8.172116271915527,13.176653382218237 -8.172116271915527,21.973427898650474 zm-27.15048966696257,0 c0,-15.60059177654924 5.24646823992506,-28.619923823111417 15.74270978985198,-39.07187743400911 c10.504173718111268,-10.452614624913062 23.951842846627763,-15.681235486423356 40.35160056774919,-15.681235486423356 c16.399757721121418,0 29.858003073883705,5.228620861510297 40.354905637825986,15.681235486423356 c10.496902563942289,10.451953610897698 15.745353845913431,23.471285657459877 15.745353845913431,39.07187743400911 c0,16.00381032591982 -5.248451281971144,29.352988366147446 -15.745353845913431,40.04819513469821 c-10.496902563942289,10.705121978781195 -23.955147916704565,16.055369419118026 -40.354905637825986,16.055369419118026 c-16.399757721121418,0 -29.847426849637916,-5.350247440336832 -40.35160056774919,-16.055369419118026 c-10.496241549926925,-10.69520676855077 -15.74270978985198,-24.04438480877839 -15.74270978985198,-40.04819513469821 " stroke-width="0"/><path id="path36" style="fill:#090a0b;fill-opacity:1;fill-rule:nonzero;stroke:none" d="m849.8219662053058,370.448282458962 h15.745353845913431 c3.6025263837207535,0 6.405225808853952,-1.0721647329165247 8.408098275399619,-3.222443324887831 c1.9962623263920483,-2.1482955499252174 2.9943934895880746,-4.8207752140321904 2.9943934895880746,-8.0227271044438 c0,-3.2045959464730642 -0.951860182120713,-5.830143615489357 -2.8489704062085197,-7.875320979018163 c-1.9037203642414244,-2.0531095317131456 -4.706419789374626,-3.0803253115850824 -8.394877995092383,-3.0803253115850824 h-15.903997209600218 zm0,-43.201231987973046 h13.50451633383759 c3.0935455918923176,0 5.446755486579626,-0.9472330840131815 7.046409403754711,-2.8502924342392446 c1.5996539171750874,-1.8977712381031697 2.3994808757626274,-4.247676062713676 2.3994808757626274,-7.0490534598161565 c0,-2.6982592107060692 -0.8262675192020075,-4.9014189239063075 -2.4788025576060204,-6.600224943385625 c-1.6459248982504,-1.6961619634178788 -4.124727455856416,-2.5482090292189903 -7.423187392510826,-2.5482090292189903 h-13.048416663238093 zm-26.24886655000934,65.70413211292818 v-107.25481210454333 h39.44931643678059 c10.999273215617107,0 19.823810320694538,2.4272434644078165 26.47361131523228,7.2764422811005485 c6.649800994537749,4.853825914800265 9.974701491806618,11.771337585559463 9.974701491806618,20.77765354486133 c0,4.596030448809239 -1.1038934056538823,8.972604244518427 -3.298459936654409,13.125094289020034 c-2.2011766711541454,4.149184974424797 -5.25506142212476,7.376916411435509 -9.155044112758231,9.674601128832451 v0.2974563069127235 c5.70455095257065,1.7040941316022185 9.928430510731308,4.8280463682011625 12.678248814635584,9.37780583593509 c2.7498183039042794,4.552403523795375 4.124727455856416,9.47100881210108 4.124727455856416,14.77234121530115 c0,10.901443141343593 -3.853711709558156,18.952593848447943 -11.547914848367244,24.15543516335913 c-7.707423419116316,5.194909146726854 -17.45077000554637,7.797982339220856 -29.24987017975102,7.797982339220856 h-39.44931643678059 " stroke-width="0"/><path id="path38" style="fill:#090a0b;fill-opacity:1;fill-rule:nonzero;stroke:none" d="m920.6231773906873,392.9511825839171 v-107.25481210454333 h26.242256409855724 V392.9511825839171 h-26.242256409855724 " stroke-width="0"/><path id="path40" style="fill:#090a0b;fill-opacity:1;fill-rule:nonzero;stroke:none" d="m969.3729610236057,392.9511825839171 v-107.25481210454333 h26.242256409855724 V370.448282458962 h43.80539879801356 v22.50290012495512 h-70.04765520786928 " stroke-width="0"/><path id="path42" style="fill:#090a0b;fill-opacity:1;fill-rule:nonzero;stroke:none" d="m1052.1715765878002,392.9511825839171 v-107.25481210454333 h67.19868480166078 v22.50290012495512 h-40.949818251651436 v19.5025575092288 h32.7003633399386 v22.49496795677078 h-32.7003633399386 v20.251486388633495 h43.051842820501335 v22.50290012495512 h-69.30070937051069 " stroke-width="0"/></g></g></g></svg>